<svg xmlns="http://www.w3.org/2000/svg" viewBox="0 0 210 180"><ellipse cx="105" cy="163" rx="83" ry="7" fill="#e8ecde"/><path d="M45 77H165V157H45Z" fill="#f5dca0" stroke="#6e7657" stroke-width="3" stroke-linejoin="round"/><path d="M140 39V18H158V55" fill="#d9907c" stroke="#855f54" stroke-width="3" stroke-linejoin="round"/><path d="M28 81L105 20L182 81Z" fill="#e6907d" stroke="#855f54" stroke-width="3" stroke-linejoin="round"/><path d="M86 157V107Q105 88 124 107V157" fill="#83aaa2" stroke="#55796d" stroke-width="3"/><circle cx="114" cy="130" r="3" fill="#fff9eb"/><rect x="55" y="96" width="23" height="25" rx="3" fill="#d9edec" stroke="#739489" stroke-width="3"/><path d="M66.5 96V121M55 108.5H78" stroke="#739489" stroke-width="2"/><rect x="135" y="96" width="23" height="25" rx="3" fill="#d9edec" stroke="#739489" stroke-width="3"/><path d="M146.5 96V121M135 108.5H158" stroke="#739489" stroke-width="2"/><path d="M19 159Q23 144 31 155Q37 137 44 159M167 159Q174 138 180 156Q188 146 193 159" fill="#a6bc85"/></svg>
