<svg xmlns="http://www.w3.org/2000/svg" viewBox="0 0 210 180"><ellipse cx="108" cy="163" rx="64" ry="7" fill="#e8ecde"/><path d="M42 48L128 27L172 58V137L87 158L42 125Z" fill="#f3d6b3" stroke="#8f7c68" stroke-width="3" stroke-linejoin="round"/><path d="M42 48L87 80L172 58M87 80V158" fill="none" stroke="#8f7c68" stroke-width="3"/><path d="M87 80L172 58V137L87 158Z" fill="#e6b99a" stroke="#8f7c68" stroke-width="3" stroke-linejoin="round"/><g fill="#655e53"><ellipse cx="82" cy="49" rx="7" ry="4" transform="rotate(-13 82 49)"/><ellipse cx="130" cy="61" rx="7" ry="4" transform="rotate(-13 130 61)"/><ellipse cx="57" cy="77" rx="4" ry="7" transform="rotate(-16 57 77)"/><ellipse cx="72" cy="120" rx="4" ry="7" transform="rotate(-16 72 120)"/><ellipse cx="106" cy="92" rx="5" ry="7" transform="rotate(15 106 92)"/><ellipse cx="152" cy="80" rx="5" ry="7" transform="rotate(15 152 80)"/><ellipse cx="129" cy="108" rx="5" ry="7" transform="rotate(15 129 108)"/><ellipse cx="106" cy="134" rx="5" ry="7" transform="rotate(15 106 134)"/><ellipse cx="152" cy="122" rx="5" ry="7" transform="rotate(15 152 122)"/></g></svg>
