<svg xmlns="http://www.w3.org/2000/svg" viewBox="0 0 210 180"><ellipse cx="106" cy="167" rx="53" ry="7" fill="#e8ecde"/><path d="M64 160V112L52 89Q49 74 61 73Q70 73 80 94V31Q80 17 91 17Q103 17 103 31V79Q109 70 119 75Q130 71 139 82Q151 79 157 92L159 120Q157 139 146 153V162Z" fill="#f1cea9" stroke="#a4886e" stroke-width="3" stroke-linejoin="round"/><path d="M103 82V101M121 83V105M139 91V108" fill="none" stroke="#bd9c80" stroke-width="3" stroke-linecap="round"/><path d="M75 113Q83 100 91 103" fill="none" stroke="#bd9c80" stroke-width="3" stroke-linecap="round"/><rect x="61" y="150" width="87" height="16" rx="6" fill="#96bca4" stroke="#668b76" stroke-width="3"/><path d="M91 28V36" stroke="#fff2d8" stroke-width="7" stroke-linecap="round"/><path d="M62 25L53 20M121 22L130 17" stroke="#d9ad58" stroke-width="3" stroke-linecap="round"/></svg>
