<svg xmlns="http://www.w3.org/2000/svg" viewBox="0 0 210 180"><ellipse cx="105" cy="165" rx="64" ry="7" fill="#e8ecde"/><path d="M136 137Q185 153 177 113Q174 98 161 106Q151 115 165 120" fill="none" stroke="#b18b63" stroke-width="10" stroke-linecap="round"/><ellipse cx="105" cy="125" rx="33" ry="33" fill="#b18b63" stroke="#806b50" stroke-width="3"/><ellipse cx="105" cy="130" rx="22" ry="22" fill="#eed3aa"/><circle cx="58" cy="57" r="19" fill="#b18b63" stroke="#806b50" stroke-width="3"/><circle cx="152" cy="57" r="19" fill="#b18b63" stroke="#806b50" stroke-width="3"/><circle cx="58" cy="57" r="11" fill="#deb998"/><circle cx="152" cy="57" r="11" fill="#deb998"/><ellipse cx="105" cy="59" rx="44" ry="40" fill="#b18b63" stroke="#806b50" stroke-width="3"/><path d="M72 51Q71 34 89 36Q104 37 105 48Q106 37 121 36Q139 34 138 51L133 77Q107 106 77 77Z" fill="#eed3aa"/><ellipse cx="89" cy="54" rx="4" ry="6" fill="#3e5142"/><ellipse cx="121" cy="54" rx="4" ry="6" fill="#3e5142"/><ellipse cx="105" cy="68" rx="5" ry="3" fill="#9b785d"/><path d="M90 79Q105 90 120 79" fill="none" stroke="#9b785d" stroke-width="3" stroke-linecap="round"/><path d="M81 107L65 136M130 107L143 136" stroke="#b18b63" stroke-width="12" stroke-linecap="round"/><ellipse cx="83" cy="158" rx="15" ry="7" fill="#deb998" stroke="#806b50" stroke-width="2"/><ellipse cx="128" cy="158" rx="15" ry="7" fill="#deb998" stroke="#806b50" stroke-width="2"/></svg>
