<svg xmlns="http://www.w3.org/2000/svg" viewBox="0 0 210 180"><ellipse cx="105" cy="163" rx="75" ry="7" fill="#e8ecde"/><path d="M45 91H26Q13 91 17 110Q20 121 45 119M165 91H184Q197 91 193 110Q190 121 165 119" fill="none" stroke="#698b79" stroke-width="8"/><path d="M44 79H166V128Q166 154 105 154Q44 154 44 128Z" fill="#b0cfc0" stroke="#6f9480" stroke-width="3"/><path d="M34 80Q41 48 105 48Q169 48 176 80Z" fill="#d4e5d6" stroke="#6f9480" stroke-width="3"/><path d="M88 47V35Q105 23 122 35V47" fill="#90b39d" stroke="#6f9480" stroke-width="3"/><path d="M60 98V122Q61 137 78 139" fill="none" stroke="#dceadd" stroke-width="6" stroke-linecap="round"/><path d="M35 80H176" stroke="#6f9480" stroke-width="4"/></svg>
