<svg xmlns="http://www.w3.org/2000/svg" viewBox="0 0 100 100"><path d="M21 39L13 12Q34 8 40 29M60 29Q69 8 88 12L79 39" fill="#efb0ba" stroke="#a86a7b" stroke-width="3" stroke-linejoin="round"/><path d="M22 26L19 18L31 22M69 22L81 18L78 26" fill="#da8fa3"/><ellipse cx="50" cy="55" rx="40" ry="35" fill="#f2c2c7" stroke="#a86a7b" stroke-width="3"/><ellipse cx="34" cy="47" rx="3.5" ry="5" fill="#4e4946"/><ellipse cx="66" cy="47" rx="3.5" ry="5" fill="#4e4946"/><ellipse cx="22" cy="61" rx="6" ry="4" fill="#e9a0b0"/><ellipse cx="78" cy="61" rx="6" ry="4" fill="#e9a0b0"/><ellipse cx="50" cy="65" rx="18" ry="12" fill="#e9a0b0" stroke="#b97486" stroke-width="2"/><ellipse cx="43" cy="65" rx="2.5" ry="4" fill="#a86a7b"/><ellipse cx="57" cy="65" rx="2.5" ry="4" fill="#a86a7b"/><path d="M43 83Q50 87 57 83" fill="none" stroke="#a86a7b" stroke-width="2" stroke-linecap="round"/></svg>
