<svg xmlns="http://www.w3.org/2000/svg" viewBox="0 0 210 180"><ellipse cx="102" cy="163" rx="71" ry="7" fill="#e8ecde"/><path d="M132 139Q190 160 180 118Q177 101 166 107" fill="none" stroke="#dca8aa" stroke-width="7" stroke-linecap="round"/><ellipse cx="107" cy="126" rx="37" ry="32" fill="#b5c1bb" stroke="#75867a" stroke-width="3"/><circle cx="59" cy="47" r="26" fill="#b5c1bb" stroke="#75867a" stroke-width="3"/><circle cx="142" cy="47" r="26" fill="#b5c1bb" stroke="#75867a" stroke-width="3"/><circle cx="59" cy="47" r="17" fill="#e3b6b8"/><circle cx="142" cy="47" r="17" fill="#e3b6b8"/><path d="M56 64Q99 31 145 65Q157 97 110 117Q103 120 96 117Q48 96 56 64Z" fill="#c6d0c8" stroke="#75867a" stroke-width="3"/><ellipse cx="79" cy="74" rx="4" ry="6" fill="#3c4e45"/><ellipse cx="124" cy="74" rx="4" ry="6" fill="#3c4e45"/><ellipse cx="102" cy="99" rx="7" ry="5" fill="#ca8c98"/><path d="M74 94L43 88M75 101L43 103M128 94L160 88M128 101L160 103" stroke="#75867a" stroke-width="2" stroke-linecap="round"/><path d="M98 108Q102 112 106 108" fill="none" stroke="#75867a" stroke-width="2"/><ellipse cx="85" cy="157" rx="14" ry="6" fill="#e3b6b8" stroke="#a58789" stroke-width="2"/><ellipse cx="126" cy="157" rx="14" ry="6" fill="#e3b6b8" stroke="#a58789" stroke-width="2"/></svg>
